<?xml version="1.0" encoding="UTF-8"?>
<svg fill="#ffffff" width="700pt" height="700pt" version="1.1" viewBox="0 0 700 700" xmlns="http://www.w3.org/2000/svg" xmlns:xlink="http://www.w3.org/1999/xlink">
  <path d="m539.57 123.05c-8.7266 0.25781-17.012 3.8945-23.098 10.152-7.5781 7.582-63.176 64.574-120.57 123.38-47.367 48.52-81.676 83.582-99.227 101.5l-116.2-92.926c-6.9609-5.5938-15.859-8.1875-24.734-7.2148-8.875 0.97656-17 5.4453-22.578 12.418-5.5781 6.9727-8.1523 15.875-7.1562 24.75 0.99609 8.8711 5.4805 16.984 12.469 22.547l140 112c6.4766 5.1602 14.633 7.7461 22.902 7.2617 8.2656-0.48438 16.066-4.0039 21.895-9.8867 7.5781-7.5781 63.176-64.574 120.57-123.38 57.398-58.801 116.61-119.41 120.23-123.02 6.4688-6.3477 10.098-15.035 10.07-24.098-0.03125-9.0586-3.7188-17.723-10.227-24.027-6.5078-6.3047-15.285-9.7109-24.344-9.4531z"/>
</svg>
