<?xml version="1.0" standalone="no"?>
<!DOCTYPE svg PUBLIC "-//W3C//DTD SVG 20010904//EN"
 "http://www.w3.org/TR/2001/REC-SVG-20010904/DTD/svg10.dtd">
<svg version="1.0" xmlns="http://www.w3.org/2000/svg"
 width="320.000000pt" height="320.000000pt" viewBox="0 0 320.000000 320.000000"
 preserveAspectRatio="xMidYMid meet">

<g transform="translate(0.000000,320.000000) scale(0.100000,-0.100000)"
fill="#000000" stroke="none">
<path d="M345 3061 c-55 -14 -104 -43 -141 -83 -75 -83 -69 31 -69 -1378 0
-1190 1 -1267 18 -1303 26 -55 81 -112 135 -139 l47 -23 1265 0 c1190 0 1267
1 1303 18 55 26 112 81 139 135 l23 47 3 763 c1 419 -1 762 -5 762 -5 0 -95
-87 -200 -192 l-193 -193 -2 -470 -3 -470 -1065 0 -1065 0 0 1065 0 1065 470
3 470 2 193 193 c105 105 192 195 192 199 0 10 -1475 8 -1515 -1z"/>
<path d="M2442 2977 l-93 -93 86 -58 c149 -101 297 -249 399 -398 l53 -77 91
92 92 92 -11 85 c-36 287 -168 413 -469 444 l-56 6 -92 -93z"/>
<path d="M1605 2140 c-324 -324 -587 -591 -585 -593 3 -2 37 -24 76 -50 149
-98 304 -253 414 -415 l43 -64 589 589 c398 398 586 593 583 603 -3 8 -27 49
-52 91 -87 146 -226 285 -372 372 -42 25 -83 49 -91 52 -10 3 -205 -185 -605
-585z"/>
<path d="M832 1367 l-32 -33 0 -267 0 -267 267 0 267 0 32 31 33 32 -21 41
c-92 181 -266 357 -459 465 l-55 31 -32 -33z"/>
</g>
</svg>
